<svg width="32" height="32" viewBox="0 0 32 32" fill="none" xmlns="http://www.w3.org/2000/svg">
<path fill-rule="evenodd" clip-rule="evenodd" d="M4.95318 31.2708H0.000976562C0.000976562 31.2708 6.37407 11.6545 8.48038 5.17403C9.46582 2.14197 12.2909 0.0890961 15.4785 0.0890961H24.3319C27.0017 0.0890961 29.2299 1.21684 30.6154 3.12252C31.9998 5.0283 32.3925 7.46681 31.5852 9.95449C30.7769 12.4422 30.0133 14.7905 29.3143 16.9421C28.3705 19.8473 25.7559 21.8491 22.7329 22.0119C22.7329 22.0119 22.7173 22.0068 26.9528 8.97018C27.3268 7.81973 27.1903 6.69366 26.6028 5.88603C26.0163 5.07851 25.0267 4.60058 23.7173 4.60058H16.1202C14.6285 4.60058 13.3065 5.56123 12.8451 6.98013L4.95318 31.2708Z" fill="#F0145A"/>
<path fill-rule="evenodd" clip-rule="evenodd" d="M22.7326 22.012H12.751L17.1491 8.6359L22.1248 8.6653L19.2356 17.4867L24.1965 17.4896L22.7326 22.012Z" fill="url(#paint0_linear_90_7705)"/>
<defs>
<linearGradient id="paint0_linear_90_7705" x1="12.7503" y1="19.45" x2="23.8538" y2="25.2535" gradientUnits="userSpaceOnUse">
<stop stop-color="#F0145A"/>
<stop offset="1" stop-color="#693264"/>
</linearGradient>
</defs>
</svg>
